<?xml version="1.0" encoding="UTF-8" standalone="no"?>
<!-- Created with Inkscape (http://www.inkscape.org/) -->

<svg
   xmlns:dc="http://purl.org/dc/elements/1.1/"
   xmlns:cc="http://creativecommons.org/ns#"
   xmlns:rdf="http://www.w3.org/1999/02/22-rdf-syntax-ns#"
   xmlns:svg="http://www.w3.org/2000/svg"
   xmlns="http://www.w3.org/2000/svg"
   xmlns:sodipodi="http://sodipodi.sourceforge.net/DTD/sodipodi-0.dtd"
   xmlns:inkscape="http://www.inkscape.org/namespaces/inkscape"
   version="1.1"
   id="svg948"
   width="512"
   height="469"
   viewBox="0 0 512 469"
   sodipodi:docname="battle_swords.svg"
   inkscape:version="0.92.3 (2405546, 2018-03-11)">
  <metadata
     id="metadata954">
    <rdf:RDF>
      <cc:Work
         rdf:about="">
        <dc:format>image/svg+xml</dc:format>
        <dc:type
           rdf:resource="http://purl.org/dc/dcmitype/StillImage" />
        <dc:title></dc:title>
      </cc:Work>
    </rdf:RDF>
  </metadata>
  <defs
     id="defs952" />
  <sodipodi:namedview
     pagecolor="#ffffff"
     bordercolor="#666666"
     borderopacity="1"
     objecttolerance="10"
     gridtolerance="10"
     guidetolerance="10"
     inkscape:pageopacity="0"
     inkscape:pageshadow="2"
     inkscape:window-width="1920"
     inkscape:window-height="960"
     id="namedview950"
     showgrid="false"
     inkscape:zoom="0.2936227"
     inkscape:cx="-735.02421"
     inkscape:cy="401.32279"
     inkscape:window-x="0"
     inkscape:window-y="27"
     inkscape:window-maximized="1"
     inkscape:current-layer="svg948"
     inkscape:measure-start="680.02,184.831"
     inkscape:measure-end="669.032,173.091" />
  <path
     id="rect1062-1"
     style="fill:#ffffff;fill-opacity:1;stroke:#673ab7;stroke-width:16.53570747;stroke-linecap:round;stroke-linejoin:round;stroke-miterlimit:4;stroke-dasharray:none;stroke-opacity:1"
     d="M 295.27049,355.64029 401.00224,249.90853 c 12.49337,12.49337 9.41754,35.6849 -6.89649,51.99893 L 347.2694,348.7438 c -16.31402,16.31403 -39.50555,19.38986 -51.99891,6.89649 z m 84.40309,7.79173 -23.33452,-23.33453 31.8198,-31.8198 23.33452,23.33452 z m 23.33452,23.33452 -23.33452,-23.33452 31.8198,-31.81981 23.33453,23.33453 z m 23.33453,23.33452 -23.33453,-23.33452 31.81981,-31.8198 23.33452,23.33452 z m 1.77232,25.40884 c -7.50451,-7.50451 -7.50443,-19.58764 1.7e-4,-27.09224 l 25.94058,-25.94059 c 7.50461,-7.5046 19.58775,-7.50468 27.09226,-1.7e-4 7.50451,7.50451 7.50444,19.58766 -1.7e-4,27.09225 l -25.94058,25.94059 c -7.50461,7.5046 -19.58775,7.50468 -27.09226,1.6e-4 z M 347.82895,302.46699 121.44617,76.084203 M 312.56878,337.91749 383.27945,267.20682 144.00273,27.930093 l -70.710693,10e-6 1e-5,70.710657 z"
     inkscape:connector-curvature="0"
     sodipodi:nodetypes="ccssccccccccccccccccssssssscccccccc" />
  <path
     id="rect1062"
     style="fill:#ffffff;fill-opacity:1;stroke:#673ab7;stroke-width:16.53570747;stroke-linecap:round;stroke-linejoin:round;stroke-miterlimit:4;stroke-dasharray:none;stroke-opacity:1"
     d="m 110.85971,249.77049 105.73176,105.73175 c -12.49337,12.49337 -35.6849,9.41754 -51.99893,-6.89649 L 117.7562,301.7694 c -16.31403,-16.31402 -19.38986,-39.50555 -6.89649,-51.99891 z m -7.79173,84.40309 23.33453,-23.33452 31.8198,31.8198 -23.33452,23.33452 z m -23.33452,23.33452 23.33452,-23.33452 31.81981,31.8198 -23.33453,23.33453 z m -23.334525,23.33453 23.334525,-23.33453 31.8198,31.81981 -23.33452,23.33452 z m -25.408839,1.77232 c 7.50451,-7.50451 19.587645,-7.50443 27.092248,1.7e-4 L 84.02293,408.5557 c 7.5046,7.50461 7.50468,19.58775 1.7e-4,27.09226 -7.50451,7.50451 -19.587657,7.50444 -27.092255,-1.7e-4 l -25.94059,-25.94058 c -7.504598,-7.50461 -7.504674,-19.58775 -1.59e-4,-27.09226 z M 164.03301,302.32895 390.4158,75.946163 m -261.83329,191.122617 70.71067,70.71067 239.27673,-239.276728 -10e-6,-70.710687 -70.71066,7e-6 z"
     inkscape:connector-curvature="0"
     sodipodi:nodetypes="ccssccccccccccccccccssssssscccccccc" />
</svg>
